#N canvas 496 101 1276 838 10;
#X obj 42 635 dac~;
#X obj 116 151 oscparse;
#X msg 116 107 listen 5005;
#X obj 116 130 netreceive -u -b;
#X obj 117 79 loadbang;
#X obj 115 172 route list;
#X obj 115 194 route pages;
#X obj 117 215 lib/list.min.max;
#X obj 343 236 change;
#X obj 343 258 print hipage;
#X obj 115 240 change;
#X obj 115 262 print lopage;
#X obj 254 608 readsf~ 2;
#X text 11 12 AFbook software v001;
#X text 13 26 Mark IJzerman 2017;
#X text 13 35 created during residency at NABI art center \, Seoul
;
#X text 16 47 supported by v2_ & Stimuleringsfonds;
#X obj 239 677 throw~ outL;
#X obj 323 677 throw~ outR;
#X obj 11 554 catch~ outL;
#X obj 89 568 catch~ outR;
#X obj 250 493 t b a;
#X msg 218 528 start;
#X msg 272 128 \; pd dsp 1;
#X obj 272 99 delay 1000;
#X obj 375 118 delay 200;
#X msg 384 144 startup_gayageum.wav;
#X obj 287 425 sprintf open sounds/test/%s.wav;
#X floatatom 282 306 5 0 0 0 - - -, f 5;
#X obj 732 330 cycle 2;
#X floatatom 732 355 5 0 0 0 - - -, f 5;
#X floatatom 771 356 5 0 0 0 - - -, f 5;
#X floatatom 732 305 5 0 0 0 - - -, f 5;
#X text 716 251 this is in the works to make crossfading possible;
#X obj 740 487 sprintf open sounds/%s.wav;
#X obj 691 418 t b f;
#X obj 690 508 line~;
#X obj 740 556 readsf~ 2;
#X obj 689 585 *~;
#X obj 722 584 *~;
#X obj 654 629 throw~ outL;
#X obj 732 629 throw~ outR;
#X msg 691 487 1 1000;
#X obj 1003 499 sprintf open sounds/%s.wav;
#X obj 955 418 t b f;
#X obj 954 508 line~;
#X obj 1002 560 readsf~ 2;
#X obj 953 585 *~;
#X obj 986 584 *~;
#X obj 918 629 throw~ outL;
#X obj 996 629 throw~ outR;
#X msg 955 487 1 1000;
#X msg 771 451 0 1000;
#X obj 771 378 t b f;
#X obj 730 379 t b f;
#X msg 884 450 0 1000;
#X obj 740 511 t b a;
#X msg 739 532 start;
#X obj 1001 520 t b a;
#X msg 1000 541 start;
#X obj 26 595 *~ 0.8;
#X obj 77 595 *~ 0.8;
#X obj 646 170 readsf~ 2;
#X obj 671 91 t b a;
#X msg 639 126 start;
#X obj 568 55 sprintf open sounds/%s;
#X obj 626 210 throw~ outL;
#X obj 710 210 throw~ outR;
#N canvas 955 300 450 300 list-stream 0;
#X obj 21 32 inlet;
#X obj 109 34 inlet;
#X obj 58 110 list append;
#X obj 110 60 route clear;
#X obj 190 112 route float;
#X obj 67 173 list split \$1;
#X obj 75 232 outlet;
#X connect 0 0 2 0;
#X connect 1 0 3 0;
#X connect 2 0 5 0;
#X connect 3 0 2 0;
#X connect 3 1 4 0;
#X connect 4 0 5 1;
#X connect 5 0 6 0;
#X connect 5 0 2 1;
#X connect 5 2 2 1;
#X restore 451 349 pd list-stream;
#X floatatom 721 447 5 0 0 0 - - -, f 5;
#X floatatom 1008 462 5 0 0 0 - - -, f 5;
#X connect 1 0 5 0;
#X connect 2 0 3 0;
#X connect 3 0 1 0;
#X connect 4 0 2 0;
#X connect 4 0 24 0;
#X connect 5 0 6 0;
#X connect 6 0 7 0;
#X connect 7 0 10 0;
#X connect 7 1 8 0;
#X connect 8 0 9 0;
#X connect 10 0 11 0;
#X connect 10 0 28 0;
#X connect 19 0 60 0;
#X connect 20 0 61 0;
#X connect 21 0 22 0;
#X connect 21 1 12 0;
#X connect 22 0 12 0;
#X connect 24 0 23 0;
#X connect 24 0 25 0;
#X connect 25 0 26 0;
#X connect 26 0 65 0;
#X connect 27 0 21 0;
#X connect 28 0 27 0;
#X connect 28 0 32 0;
#X connect 29 0 30 0;
#X connect 29 1 31 0;
#X connect 30 0 54 0;
#X connect 31 0 53 0;
#X connect 32 0 29 0;
#X connect 34 0 56 0;
#X connect 35 0 42 0;
#X connect 35 1 69 0;
#X connect 36 0 38 0;
#X connect 36 0 39 0;
#X connect 37 0 38 1;
#X connect 37 1 39 1;
#X connect 37 2 69 0;
#X connect 38 0 40 0;
#X connect 39 0 41 0;
#X connect 42 0 36 0;
#X connect 43 0 58 0;
#X connect 44 0 51 0;
#X connect 44 1 70 0;
#X connect 45 0 47 0;
#X connect 45 0 48 0;
#X connect 46 0 47 1;
#X connect 46 1 48 1;
#X connect 46 2 70 0;
#X connect 47 0 49 0;
#X connect 48 0 50 0;
#X connect 51 0 45 0;
#X connect 52 0 36 0;
#X connect 53 0 52 0;
#X connect 53 1 44 0;
#X connect 54 0 55 0;
#X connect 54 1 35 0;
#X connect 55 0 45 0;
#X connect 56 0 57 0;
#X connect 56 1 37 0;
#X connect 57 0 37 0;
#X connect 58 0 59 0;
#X connect 58 1 46 0;
#X connect 59 0 46 0;
#X connect 60 0 0 0;
#X connect 61 0 0 1;
#X connect 62 0 66 0;
#X connect 62 1 67 0;
#X connect 63 0 64 0;
#X connect 63 1 62 0;
#X connect 64 0 62 0;
#X connect 65 0 63 0;
#X connect 69 0 34 0;
#X connect 70 0 43 0;
