#N canvas 52 283 588 711 10;
#X obj 42 635 dac~;
#X obj 26 595 *~ 0.2;
#X obj 116 151 oscparse;
#X msg 116 107 listen 5005;
#X obj 116 130 netreceive -u -b;
#X obj 117 79 loadbang;
#X obj 115 172 route list;
#X obj 115 194 route pages;
#X obj 117 215 lib/list.min.max;
#X obj 224 239 change;
#X obj 224 261 print hipage;
#X obj 115 240 change;
#X obj 115 262 print lopage;
#X obj 240 613 readsf~ 2;
#X text 11 12 AFbook software v001;
#X text 13 26 Mark IJzerman 2017;
#X text 13 35 created during residency at NABI art center \, Seoul
;
#X text 16 47 supported by v2_ & Stimuleringsfonds;
#X obj 77 595 *~ 0.2;
#X obj 239 636 throw~ outL;
#X obj 323 636 throw~ outR;
#X obj 11 554 catch~ outL;
#X obj 75 573 catch~ outR;
#X msg 301 328 2016_10_Bukhansan_1.wav;
#X msg 381 375 2016_10_Jirisan_4.wav;
#X msg 394 396 2016_10_Jirisan_8.wav;
#X msg 354 353 2016_10_Seroaksan_2.wav;
#X obj 352 251 sel 0 1 2 3;
#X obj 236 476 sprintf open sounds/%s;
#X obj 236 498 t b a;
#X msg 204 533 start;
#X obj 272 99 delay 100;
#X msg 272 128 \; pd dsp 1;
#X connect 1 0 0 0;
#X connect 2 0 6 0;
#X connect 3 0 4 0;
#X connect 4 0 2 0;
#X connect 5 0 3 0;
#X connect 5 0 31 0;
#X connect 6 0 7 0;
#X connect 7 0 8 0;
#X connect 8 0 11 0;
#X connect 8 1 9 0;
#X connect 9 0 10 0;
#X connect 9 0 27 0;
#X connect 11 0 12 0;
#X connect 13 0 19 0;
#X connect 13 1 20 0;
#X connect 18 0 0 1;
#X connect 21 0 1 0;
#X connect 22 0 18 0;
#X connect 23 0 28 0;
#X connect 24 0 28 0;
#X connect 25 0 28 0;
#X connect 26 0 28 0;
#X connect 27 0 23 0;
#X connect 27 1 26 0;
#X connect 27 2 24 0;
#X connect 27 3 25 0;
#X connect 28 0 29 0;
#X connect 29 0 30 0;
#X connect 29 1 13 0;
#X connect 30 0 13 0;
#X connect 31 0 32 0;
