#N canvas 395 101 1276 838 10;
#X obj 42 635 dac~;
#X obj 116 151 oscparse;
#X obj 133 63 loadbang;
#X obj 115 172 route list;
#X obj 115 194 route pages;
#X obj 117 215 lib/list.min.max;
#X text 11 12 AFbook software v001;
#X text 13 26 Mark IJzerman 2017;
#X text 13 35 created during residency at NABI art center \, Seoul
;
#X text 16 47 supported by v2_ & Stimuleringsfonds;
#X obj 11 554 catch~ outL;
#X obj 89 568 catch~ outR;
#X msg 272 128 \; pd dsp 1;
#X obj 375 118 delay 200;
#X msg 384 144 startup_gayageum.wav;
#X floatatom 146 329 5 0 0 0 - - -, f 5;
#X floatatom 732 355 5 0 0 0 - - -, f 5;
#X floatatom 771 356 5 0 0 0 - - -, f 5;
#X floatatom 732 305 5 0 0 0 - - -, f 5;
#X obj 740 487 sprintf open sounds/%s.wav;
#X obj 691 418 t b f;
#X obj 690 508 line~;
#X obj 740 556 readsf~ 2;
#X obj 689 585 *~;
#X obj 722 584 *~;
#X obj 654 629 throw~ outL;
#X obj 732 629 throw~ outR;
#X msg 691 487 1 1000;
#X obj 1003 499 sprintf open sounds/%s.wav;
#X obj 955 418 t b f;
#X obj 954 508 line~;
#X obj 1002 560 readsf~ 2;
#X obj 953 585 *~;
#X obj 986 584 *~;
#X obj 918 629 throw~ outL;
#X obj 996 629 throw~ outR;
#X msg 955 487 1 1000;
#X msg 771 451 0 1000;
#X obj 771 378 t b f;
#X obj 730 379 t b f;
#X msg 884 450 0 1000;
#X obj 740 511 t b a;
#X msg 739 532 start;
#X obj 1001 520 t b a;
#X msg 1000 541 start;
#X obj 26 595 *~ 0.8;
#X obj 77 595 *~ 0.8;
#X obj 646 170 readsf~ 2;
#X obj 671 91 t b a;
#X msg 639 126 start;
#X obj 568 55 sprintf open sounds/%s;
#X obj 626 210 throw~ outL;
#X obj 710 210 throw~ outR;
#X floatatom 721 447 5 0 0 0 - - -, f 5;
#X floatatom 1008 462 5 0 0 0 - - -, f 5;
#N canvas 345 368 450 300 test_with_numbers_currently_off 0;
#X obj 82 210 readsf~ 2;
#X obj 67 279 throw~ outL;
#X obj 151 279 throw~ outR;
#X obj 78 95 t b a;
#X msg 46 130 start;
#X obj 79 67 sprintf open sounds/test/%s.wav;
#X obj 86 27 inlet;
#X connect 0 0 1 0;
#X connect 0 1 2 0;
#X connect 3 0 4 0;
#X connect 3 1 0 0;
#X connect 4 0 0 0;
#X connect 5 0 3 0;
#X connect 6 0 5 0;
#X restore 83 445 pd test_with_numbers_currently_off;
#N canvas 432 430 450 300 lbyl 0;
#X obj 56 37 inlet;
#X floatatom 57 84 5 0 0 0 - - -, f 5;
#X obj 57 104 / 5;
#X floatatom 57 127 5 0 0 0 - - -, f 5;
#X obj 55 148 int;
#X obj 64 191 outlet;
#X floatatom 57 172 5 0 0 0 - - -, f 5;
#N canvas 0 51 450 300 sum 0;
#X obj 43 29 inlet;
#X obj 46 229 outlet;
#X obj 59 103 list split 1;
#X obj 59 67 until;
#X obj 59 85 list append;
#X obj 126 120 bang;
#X obj 59 138 route float;
#X obj 59 171 +;
#X obj 59 188 t f f;
#X obj 46 206 f;
#X msg 92 154 0;
#X obj 43 48 t b b l b;
#X connect 0 0 11 0;
#X connect 2 0 6 0;
#X connect 2 1 4 1;
#X connect 2 2 5 0;
#X connect 3 0 4 0;
#X connect 4 0 2 0;
#X connect 5 0 3 1;
#X connect 6 0 7 0;
#X connect 7 0 8 0;
#X connect 8 0 9 1;
#X connect 8 1 7 1;
#X connect 9 0 1 0;
#X connect 10 0 8 0;
#X connect 11 0 9 0;
#X connect 11 1 3 0;
#X connect 11 2 4 1;
#X connect 11 3 10 0;
#X restore 54 58 pd sum;
#X connect 0 0 7 0;
#X connect 1 0 2 0;
#X connect 2 0 3 0;
#X connect 3 0 4 0;
#X connect 4 0 6 0;
#X connect 6 0 5 0;
#X connect 7 0 1 0;
#X restore 151 302 pd lbyl;
#X obj 245 354 change;
#X obj 239 204 loadbang;
#X msg 247 225 5;
#N canvas 270 253 450 300 list-group 0;
#X obj 24 18 inlet;
#X obj 24 54 t b a;
#X obj 25 85 until;
#X obj 23 112 list prepend;
#X obj 25 157 list split 1;
#X obj 31 246 outlet;
#X obj 118 190 t b a;
#X obj 111 90 list prepend;
#X obj 218 24 inlet;
#X obj 287 21 loadbang;
#X obj 219 53 f \$1;
#X obj 220 92 t b b f;
#X obj 264 139 max 1;
#X connect 0 0 1 0;
#X connect 1 0 2 0;
#X connect 1 1 7 0;
#X connect 2 0 3 0;
#X connect 3 0 4 0;
#X connect 4 0 5 0;
#X connect 4 1 3 1;
#X connect 4 2 6 0;
#X connect 6 0 2 1;
#X connect 6 1 7 1;
#X connect 7 0 3 1;
#X connect 8 0 10 0;
#X connect 9 0 10 0;
#X connect 10 0 11 0;
#X connect 11 0 3 1;
#X connect 11 1 7 1;
#X connect 11 2 12 0;
#X connect 12 0 4 1;
#X restore 138 255 pd list-group;
#X obj 732 330 lib/cycle 2;
#X obj 116 130 netreceive -u -b 5005;
#X obj 272 99 delay 1000;
#X msg 116 105 listen 5005;
#X connect 1 0 3 0;
#X connect 2 0 63 0;
#X connect 2 0 64 0;
#X connect 3 0 4 0;
#X connect 4 0 5 0;
#X connect 5 0 60 0;
#X connect 10 0 45 0;
#X connect 11 0 46 0;
#X connect 13 0 14 0;
#X connect 14 0 50 0;
#X connect 15 0 57 0;
#X connect 16 0 39 0;
#X connect 17 0 38 0;
#X connect 18 0 61 0;
#X connect 19 0 41 0;
#X connect 20 0 27 0;
#X connect 20 1 53 0;
#X connect 21 0 23 0;
#X connect 21 0 24 0;
#X connect 22 0 23 1;
#X connect 22 1 24 1;
#X connect 22 2 53 0;
#X connect 23 0 25 0;
#X connect 24 0 26 0;
#X connect 27 0 21 0;
#X connect 28 0 43 0;
#X connect 29 0 36 0;
#X connect 29 1 54 0;
#X connect 30 0 32 0;
#X connect 30 0 33 0;
#X connect 31 0 32 1;
#X connect 31 1 33 1;
#X connect 31 2 54 0;
#X connect 32 0 34 0;
#X connect 33 0 35 0;
#X connect 36 0 30 0;
#X connect 37 0 21 0;
#X connect 38 0 37 0;
#X connect 38 1 29 0;
#X connect 39 0 40 0;
#X connect 39 1 20 0;
#X connect 40 0 30 0;
#X connect 41 0 42 0;
#X connect 41 1 22 0;
#X connect 42 0 22 0;
#X connect 43 0 44 0;
#X connect 43 1 31 0;
#X connect 44 0 31 0;
#X connect 45 0 0 0;
#X connect 46 0 0 1;
#X connect 47 0 51 0;
#X connect 47 1 52 0;
#X connect 48 0 49 0;
#X connect 48 1 47 0;
#X connect 49 0 47 0;
#X connect 50 0 48 0;
#X connect 53 0 19 0;
#X connect 54 0 28 0;
#X connect 56 0 15 0;
#X connect 57 0 18 0;
#X connect 58 0 59 0;
#X connect 59 0 60 1;
#X connect 60 0 56 0;
#X connect 61 0 16 0;
#X connect 61 1 17 0;
#X connect 62 0 1 0;
#X connect 63 0 12 0;
#X connect 63 0 13 0;
#X connect 64 0 62 0;
