#N canvas 109 22 489 580 10;
#X obj 21 172 soundfiler;
#X text -2 6 .anchor.;
#X floatatom 220 189 12 0 0 3 samplesize - -;
#X text 240 12 designed by D. Yi @ 2014 fall;
#X obj 21 45 inlet;
#X obj 141 73 loadbang;
#X obj 224 144 table \$0-playBuf 8820;
#X obj 21 459 tabread~ \$0-playBuf;
#X obj 169 322 inlet;
#X obj 21 499 *~;
#X obj 51 499 *~;
#X obj 330 482 inlet;
#X text 408 545 .anchor.;
#X obj 21 114 pack s f;
#X msg 21 144 read -resize \$1 \$2-playBuf;
#X obj 141 97 f \$0;
#X obj 21 426 vline~;
#X obj 114 228 samplerate~;
#X obj 99 281 /;
#X floatatom 114 256 7 0 0 1 samplerate - -;
#X obj 99 309 * 1000;
#X obj 54 337 pack f f;
#X msg 54 365 set \$1 \$2;
#X msg 54 393 46183 1047.23;
#X msg 21 393 0 0;
#X obj 169 376 t b b;
#X text 60 45 1-soundfile name symbol;
#X text 220 531 1-end bng;
#X obj 220 509 outlet;
#X text 168 303 2-play shot : bang;
#X obj 244 350 inlet;
#X obj 244 378 bng 15 250 50 0 empty empty empty 17 7 0 10 -262144
-1 -1;
#X text 243 331 3-stop/rewind : bang;
#X obj 220 442 threshold~;
#X obj 54 200 t a a b;
#X msg 277 393 0;
#X msg 220 414 set \$1 10 10 10;
#X obj 343 435 switch~;
#X msg 343 393 1;
#X msg 373 393 0;
#X obj 343 415 tgl 15 0 empty empty dsp-switch 17 7 0 10 -262144 -1
-1 0 1;
#X text 333 374 when the sample is over;
#X text 333 358 turn off dsp switch;
#X obj 220 470 t b b;
#X obj 409 499 != 0;
#X obj 409 521 change;
#X obj 25 529 outlet~;
#X obj 318 232 inlet;
#X floatatom 318 254 5 0 0 0 - - -;
#X obj 303 279 + 1000;
#X obj 302 300 t b b f;
#X text 358 234 4: speed;
#X text 325 503 5-volume;
#X connect 0 0 2 0;
#X connect 0 0 34 0;
#X connect 2 0 36 0;
#X connect 4 0 13 0;
#X connect 5 0 15 0;
#X connect 7 0 9 0;
#X connect 7 0 10 0;
#X connect 8 0 25 0;
#X connect 9 0 46 0;
#X connect 10 0 46 0;
#X connect 11 0 9 1;
#X connect 11 0 10 1;
#X connect 11 0 44 0;
#X connect 13 0 14 0;
#X connect 14 0 0 0;
#X connect 15 0 13 1;
#X connect 16 0 7 0;
#X connect 16 0 33 0;
#X connect 17 0 19 0;
#X connect 18 0 20 0;
#X connect 19 0 18 1;
#X connect 20 0 21 1;
#X connect 21 0 22 0;
#X connect 22 0 23 0;
#X connect 23 0 16 0;
#X connect 24 0 16 0;
#X connect 25 0 23 0;
#X connect 25 1 24 0;
#X connect 25 1 35 0;
#X connect 25 1 38 0;
#X connect 30 0 31 0;
#X connect 31 0 24 0;
#X connect 31 0 39 0;
#X connect 33 0 43 0;
#X connect 34 0 21 0;
#X connect 34 1 18 0;
#X connect 34 2 17 0;
#X connect 35 0 33 1;
#X connect 36 0 33 0;
#X connect 38 0 40 0;
#X connect 39 0 40 0;
#X connect 40 0 37 0;
#X connect 43 0 28 0;
#X connect 43 1 39 0;
#X connect 44 0 45 0;
#X connect 45 0 40 0;
#X connect 47 0 48 0;
#X connect 48 0 49 0;
#X connect 49 0 50 0;
#X connect 50 0 21 0;
#X connect 50 1 20 0;
#X connect 50 2 20 1;
